<svg width="731" height="1117" viewBox="0 0 731 1117" fill="none" xmlns="http://www.w3.org/2000/svg">
<path d="M204.888 158.196C240.32 232.175 314.764 281.797 391.571 315.573C468.379 349.327 550.763 370.98 625.345 409.122C729.415 462.335 818.247 552.315 844.707 663.129C871.166 773.942 1002.8 993.738 897.676 1045C821.442 1082.19 826.162 1364.09 742.676 1346.67C659.191 1329.25 382.622 1257.33 297.231 1258.82C211.841 1260.3 49.8 1303.4 15.676 1379C-17.8973 1453.36 4.02214 1204.56 66.4642 1258.82C128.906 1313.07 213.906 1336.48 297.231 1346.67C417.296 1361.39 541.882 1351.59 654.191 1308.02C766.499 1264.45 865.75 1185.66 922.317 1082.34C991.001 956.895 992.746 807.984 983.956 666.342C971.725 468.784 936.614 260.034 802.184 110.635C731.09 31.6248 633.583 -23.2943 528.939 -49.269C476.549 -62.2564 422.23 -68.0852 368.164 -66.1127C316.691 -64.2067 253.148 -62.212 217.555 -20.2581C177.533 26.9485 179.691 105.56 204.888 158.196Z" fill="url(#paint0_linear_5_33)"/>
<defs>
<linearGradient id="paint0_linear_5_33" x1="-9.31713" y1="643.289" x2="987.675" y2="643.289" gradientUnits="userSpaceOnUse">
<stop stop-color="#4D4D4D"/>
<stop offset="0.0811208" stop-color="#4D4D4D"/>
<stop offset="0.711"/>
<stop offset="1"/>
</linearGradient>
</defs>
</svg>
