<svg width="349" height="713" viewBox="0 0 349 713" fill="none" xmlns="http://www.w3.org/2000/svg">
<path opacity="0.22" d="M1089.95 129.455C1098.3 247.981 1060.37 369.012 985.325 463.137C932.269 529.714 858.032 584.167 772.297 598.418C688.422 612.336 603.008 587.026 524.365 555.577C445.744 524.129 368.73 485.854 284.854 471.958C200.979 458.039 105.927 473.265 49.0155 534.39C-1.49348 588.622 -12.0955 671.222 13.1934 739.971C38.4823 808.72 95.6234 863.728 162.104 898.39C228.585 933.053 303.97 948.921 379.126 956.19C591.419 976.757 810.162 929.905 993.541 824.588C1094.81 766.433 1186.47 689.684 1248.5 592.944C1310.52 496.204 1341.11 378.365 1319.77 266.465C1308.11 205.385 1279.89 147.23 1239.06 99.2475C1217.58 73.9821 1192.8 53.2156 1165.72 33.8232C1140.96 16.1152 1120.61 -10.7238 1085.56 4.502C1077.16 8.15885 1069.43 14.4974 1066.91 23.0522C1063.72 33.8232 1076.38 50.2679 1079.89 60.906C1086.94 82.2044 1088.39 107.248 1089.95 129.455Z" fill="url(#paint0_linear_5_20)"/>
<defs>
<linearGradient id="paint0_linear_5_20" x1="236.079" y1="819.418" x2="1433.48" y2="164.405" gradientUnits="userSpaceOnUse">
<stop stop-color="#7F7F7F"/>
<stop offset="0.254808" stop-color="#4D4D4D"/>
<stop offset="0.384615"/>
<stop offset="0.625" stop-color="#313C40"/>
</linearGradient>
</defs>
</svg>
