<svg width="96" height="96" viewBox="0 0 96 96" fill="none" xmlns="http://www.w3.org/2000/svg">
<path d="M5.64706 59.7813V36.2174C5.64706 34.304 4.38315 32.7529 2.82405 32.7529C1.26495 32.7529 0 34.304 0 36.2174V59.7813C0 61.6959 1.26391 63.247 2.82405 63.247C4.38419 63.247 5.64706 61.6959 5.64706 59.7813Z" fill="black"/>
<path d="M10.1648 30.6207V67.6393C10.1648 69.5798 11.4287 71.1529 12.9888 71.1529C14.549 71.1529 15.8119 69.5798 15.8119 67.6393V30.6207C15.8119 28.6802 14.5479 27.1058 12.9888 27.1058C11.4297 27.1058 10.1648 28.6802 10.1648 30.6207Z" fill="black"/>
<path d="M20.3293 12.6436V83.3563C20.3293 85.3484 21.5933 86.9647 23.1524 86.9647C24.7115 86.9647 25.9764 85.3498 25.9764 83.3563V12.6436C25.9764 10.6515 24.7125 9.03528 23.1524 9.03528C21.5922 9.03528 20.3293 10.6515 20.3293 12.6436Z" fill="black"/>
<path d="M30.4941 31.8513V64.1488C30.4941 66.1451 31.7581 67.7648 33.3182 67.7648C34.8783 67.7648 36.1412 66.1464 36.1412 64.1488V31.8513C36.1412 29.855 34.8773 28.2354 33.3182 28.2354C31.7591 28.2354 30.4941 29.8537 30.4941 31.8513Z" fill="black"/>
<path d="M39.5293 3.56489V92.4351C39.5293 94.4032 41.0457 96 42.9175 96C44.7894 96 46.3058 94.4045 46.3058 92.4351V3.56489C46.3058 1.59547 44.7894 0 42.9175 0C41.0457 0 39.5293 1.59547 39.5293 3.56489Z" fill="black"/>
<path d="M49.6941 22.7415V73.2584C49.6941 75.2136 51.2108 76.8 53.0817 76.8C54.9526 76.8 56.4706 75.2149 56.4706 73.2584V22.7415C56.4706 20.7863 54.9539 19.2 53.0817 19.2C51.2095 19.2 49.6941 20.785 49.6941 22.7415Z" fill="black"/>
<path d="M59.8589 30.6207V67.6393C59.8589 69.5798 61.1228 71.1529 62.6829 71.1529C64.2431 71.1529 65.5059 69.5798 65.5059 67.6393V30.6207C65.5059 28.6802 64.242 27.1058 62.6829 27.1058C61.1238 27.1058 59.8589 28.6802 59.8589 30.6207Z" fill="black"/>
<path d="M70.0234 12.6078V84.5216C70.0234 86.4952 71.2874 88.0941 72.8465 88.0941C74.4056 88.0941 75.6705 86.4952 75.6705 84.5216V12.6078C75.6705 10.6355 74.4066 9.03528 72.8465 9.03528C71.2863 9.03528 70.0234 10.6355 70.0234 12.6078Z" fill="black"/>
<path d="M80.1882 31.7816V65.3479C80.1882 67.3057 81.4521 68.8942 83.0123 68.8942C84.5724 68.8942 85.8353 67.307 85.8353 65.3479V31.7816C85.8353 29.8238 84.5714 28.2354 83.0123 28.2354C81.4532 28.2354 80.1882 29.8225 80.1882 31.7816Z" fill="black"/>
<path d="M96.0001 58.4661V37.5339C96.0001 35.5179 94.7362 33.8823 93.176 33.8823C91.6159 33.8823 90.353 35.5166 90.353 37.5339V58.4661C90.353 60.482 91.6169 62.1176 93.176 62.1176C94.7351 62.1176 96.0001 60.4834 96.0001 58.4661Z" fill="black"/>
</svg>
