<svg width="96" height="96" viewBox="0 0 96 96" fill="none" xmlns="http://www.w3.org/2000/svg">
<g clip-path="url(#clip0_79_318)">
<g clip-path="url(#clip1_79_318)">
<path d="M4.77846 33.5527L26.9613 85.0835C27.5237 86.4049 28.3845 87.5973 29.4848 88.579C30.5852 89.5608 31.8992 90.3088 33.3371 90.772H33.3729C34.8934 91.5548 36.5963 91.9765 38.3318 92H81.2664C84.1131 92 86.8432 90.9424 88.8562 89.0598C90.8691 87.1772 92 84.6239 92 81.9615V38.4615C92 38.4113 91.975 38.3645 91.975 38.3143C91.96 38.0777 91.918 37.8432 91.8497 37.615C91.829 37.5123 91.8027 37.4107 91.771 37.3105C91.647 36.9862 91.4709 36.6816 91.2486 36.407L66.2035 6.29162C65.8981 5.94147 65.5195 5.65338 65.0908 5.44504C64.9814 5.39059 64.8692 5.34145 64.7544 5.29781C64.3571 5.13625 63.9314 5.04438 63.4986 5.02677C63.4557 5.02677 63.4199 5 63.377 5H38.3318C35.6709 5.00813 33.1084 5.94221 31.1434 7.62033C29.1785 9.29845 27.9517 11.6005 27.7019 14.0781L10.6712 20.476C8.04326 21.488 5.94935 23.4302 4.84561 25.8795C3.74187 28.3288 3.71774 31.0868 4.77846 33.5527ZM66.9548 18.1002L81.1054 35.1154H70.5327C69.5838 35.1154 68.6738 34.7628 68.0028 34.1353C67.3318 33.5078 66.9548 32.6567 66.9548 31.7692V18.1002ZM34.7539 15.0385C34.7539 14.151 35.1309 13.2999 35.8019 12.6724C36.4729 12.0448 37.3829 11.6923 38.3318 11.6923H59.7991V31.7692C59.7991 34.4316 60.93 36.9849 62.9429 38.8675C64.9558 40.7501 67.686 41.8077 70.5327 41.8077H84.8442V81.9615C84.8442 82.849 84.4673 83.7001 83.7963 84.3276C83.1253 84.9552 82.2153 85.3077 81.2664 85.3077H38.3318C37.3829 85.3077 36.4729 84.9552 35.8019 84.3276C35.1309 83.7001 34.7539 82.849 34.7539 81.9615V15.0385ZM13.3689 26.6764L27.5982 21.3292V68.6673L11.4118 31.0431C11.0575 30.2209 11.0643 29.3011 11.4308 28.4836C11.7972 27.666 12.4937 27.0166 13.3689 26.6764Z" fill="black"/>
</g>
</g>
<defs>
<clipPath id="clip0_79_318">
<rect width="96" height="96" fill="white"/>
</clipPath>
<clipPath id="clip1_79_318">
<rect width="99" height="120" fill="white" transform="translate(-1 -12)"/>
</clipPath>
</defs>
</svg>
