<svg width="1009" height="294" viewBox="0 0 1009 294" fill="none" xmlns="http://www.w3.org/2000/svg">
<path d="M210.566 49.6953C214.138 51.3428 216.897 54.314 218.235 57.9552C219.572 61.5964 219.38 65.6094 217.699 69.1113L167.001 174.745C165.32 178.247 162.289 180.951 158.575 182.262C154.86 183.573 150.766 183.384 147.193 181.737L52.8997 138.254C49.3271 136.606 46.5685 133.635 45.2308 129.994C43.893 126.353 44.0857 122.34 45.7664 118.838L61.6094 85.8272L88.1524 81.9409L116.67 22.5222C118.351 19.0202 121.382 16.3161 125.096 15.0048C128.811 13.6935 132.905 13.8824 136.478 15.5299L210.566 49.6953Z" fill="#D9D9D9"/>
<path d="M210.566 49.6953C214.138 51.3428 216.897 54.314 218.235 57.9552C219.572 61.5964 219.38 65.6094 217.699 69.1113L167.001 174.745C165.32 178.247 162.289 180.951 158.575 182.262C154.86 183.573 150.766 183.384 147.193 181.737L52.8997 138.254C49.3271 136.606 46.5685 133.635 45.2308 129.994C43.893 126.353 44.0857 122.34 45.7664 118.838L61.6094 85.8272L88.1524 81.9409L116.67 22.5222C118.351 19.0202 121.382 16.3161 125.096 15.0048C128.811 13.6935 132.905 13.8824 136.478 15.5299L210.566 49.6953Z" fill="white"/>
<path d="M210.566 49.6953C214.138 51.3428 216.897 54.314 218.235 57.9552C219.572 61.5964 219.38 65.6094 217.699 69.1113L167.001 174.745C165.32 178.247 162.289 180.951 158.575 182.262C154.86 183.573 150.766 183.384 147.193 181.737L52.8997 138.254C49.3271 136.606 46.5685 133.635 45.2308 129.994C43.893 126.353 44.0857 122.34 45.7664 118.838L61.6094 85.8272L88.1524 81.9409L116.67 22.5222C118.351 19.0202 121.382 16.3161 125.096 15.0048C128.811 13.6935 132.905 13.8824 136.478 15.5299L210.566 49.6953Z" stroke="#4D4D4D" stroke-width="8" stroke-linecap="round" stroke-linejoin="round"/>
<path d="M176.12 58.2678C179.893 59.407 183.05 61.9688 184.896 65.3897C186.743 68.8105 187.127 72.8103 185.965 76.509L150.909 188.076C149.747 191.775 147.134 194.869 143.644 196.679C140.154 198.489 136.074 198.866 132.3 197.727L32.7097 167.66C28.9364 166.521 25.7793 163.959 23.9329 160.538C22.0866 157.117 21.7022 153.117 22.8643 149.419L33.8191 114.554L59.5419 107.051L79.2606 44.2944C80.4227 40.5958 83.0362 37.5011 86.5261 35.6913C90.016 33.8814 94.0964 33.5046 97.8697 34.6438L176.12 58.2678Z" fill="#D9D9D9"/>
<path d="M176.12 58.2678C179.893 59.407 183.05 61.9688 184.896 65.3897C186.743 68.8105 187.127 72.8103 185.965 76.509L150.909 188.076C149.747 191.775 147.134 194.869 143.644 196.679C140.154 198.489 136.074 198.866 132.3 197.727L32.7097 167.66C28.9364 166.521 25.7793 163.959 23.9329 160.538C22.0866 157.117 21.7022 153.117 22.8643 149.419L33.8191 114.554L59.5419 107.051L79.2606 44.2944C80.4227 40.5958 83.0362 37.5011 86.5261 35.6913C90.016 33.8814 94.0964 33.5046 97.8697 34.6438L176.12 58.2678Z" fill="white"/>
<path d="M176.12 58.2678C179.893 59.407 183.05 61.9688 184.896 65.3897C186.743 68.8105 187.127 72.8103 185.965 76.509L150.909 188.076C149.747 191.775 147.134 194.869 143.644 196.679C140.154 198.489 136.074 198.866 132.3 197.727L32.7097 167.66C28.9364 166.521 25.7793 163.959 23.9329 160.538C22.0866 157.117 21.7022 153.117 22.8643 149.419L33.8191 114.554L59.5419 107.051L79.2606 44.2944C80.4227 40.5958 83.0362 37.5011 86.5261 35.6913C90.016 33.8814 94.0964 33.5046 97.8697 34.6438L176.12 58.2678Z" stroke="#4D4D4D" stroke-width="8" stroke-linecap="round" stroke-linejoin="round"/>
<path d="M141.105 65.9845C145.013 66.5353 148.537 68.5853 150.904 71.6835C153.27 74.7817 154.283 78.6744 153.721 82.5051L136.772 198.056C136.21 201.887 134.119 205.342 130.958 207.661C127.797 209.98 123.826 210.974 119.918 210.423L16.7714 195.885C12.8633 195.335 9.33859 193.285 6.97253 190.186C4.60647 187.088 3.5929 183.196 4.15481 179.365L9.45151 143.255L33.673 131.927L43.2071 66.9293C43.769 63.0985 45.8604 59.6435 49.0211 57.3242C52.1818 55.0049 56.153 54.0114 60.061 54.5622L141.105 65.9845Z" fill="#D9D9D9"/>
<path d="M141.105 65.9845C145.013 66.5353 148.537 68.5853 150.904 71.6835C153.27 74.7817 154.283 78.6744 153.721 82.5051L136.772 198.056C136.21 201.887 134.119 205.342 130.958 207.661C127.797 209.98 123.826 210.974 119.918 210.423L16.7714 195.885C12.8633 195.335 9.33859 193.285 6.97253 190.186C4.60647 187.088 3.5929 183.196 4.15481 179.365L9.45151 143.255L33.673 131.927L43.2071 66.9293C43.769 63.0985 45.8604 59.6435 49.0211 57.3242C52.1818 55.0049 56.153 54.0114 60.061 54.5622L141.105 65.9845Z" fill="white"/>
<path d="M141.105 65.9845C145.013 66.5353 148.537 68.5853 150.904 71.6835C153.27 74.7817 154.283 78.6744 153.721 82.5051L136.772 198.056C136.21 201.887 134.119 205.342 130.958 207.661C127.797 209.98 123.826 210.974 119.918 210.423L16.7714 195.885C12.8633 195.335 9.33859 193.285 6.97253 190.186C4.60647 187.088 3.5929 183.196 4.15481 179.365L9.45151 143.255L33.673 131.927L43.2071 66.9293C43.769 63.0985 45.8604 59.6435 49.0211 57.3242C52.1818 55.0049 56.153 54.0114 60.061 54.5622L141.105 65.9845Z" stroke="#4D4D4D" stroke-width="8" stroke-linecap="round" stroke-linejoin="round"/>
<path d="M220.533 223.111C220.533 227.59 218.326 231.886 214.398 235.053C210.47 238.221 205.141 240 199.586 240H32.0052C26.4495 240 21.1214 238.221 17.193 235.053C13.2646 231.886 11.0576 227.59 11.0576 223.111V104.889C11.0576 100.41 13.2646 96.1139 17.193 92.9466C21.1214 89.7794 26.4495 88 32.0052 88H84.3741L105.322 113.333H199.586C205.141 113.333 210.47 115.113 214.398 118.28C218.326 121.447 220.533 125.743 220.533 130.222V223.111Z" fill="#D9D9D9"/>
<path d="M220.533 223.111C220.533 227.59 218.326 231.886 214.398 235.053C210.47 238.221 205.141 240 199.586 240H32.0052C26.4495 240 21.1214 238.221 17.193 235.053C13.2646 231.886 11.0576 227.59 11.0576 223.111V104.889C11.0576 100.41 13.2646 96.1139 17.193 92.9466C21.1214 89.7794 26.4495 88 32.0052 88H84.3741L105.322 113.333H199.586C205.141 113.333 210.47 115.113 214.398 118.28C218.326 121.447 220.533 125.743 220.533 130.222V223.111Z" fill="white"/>
<path d="M220.533 223.111C220.533 227.59 218.326 231.886 214.398 235.053C210.47 238.221 205.141 240 199.586 240H32.0052C26.4495 240 21.1214 238.221 17.193 235.053C13.2646 231.886 11.0576 227.59 11.0576 223.111V104.889C11.0576 100.41 13.2646 96.1139 17.193 92.9466C21.1214 89.7794 26.4495 88 32.0052 88H84.3741L105.322 113.333H199.586C205.141 113.333 210.47 115.113 214.398 118.28C218.326 121.447 220.533 125.743 220.533 130.222V223.111Z" stroke="#4D4D4D" stroke-width="7" stroke-linecap="round" stroke-linejoin="round"/>
<path d="M345.435 193.491C345.435 190.317 344.946 187.469 343.97 184.946C343.075 182.342 341.366 179.982 338.843 177.866C336.32 175.669 332.78 173.512 328.223 171.396C323.665 169.281 317.765 167.083 310.522 164.805C302.466 162.201 294.816 159.271 287.573 156.016C280.412 152.76 274.064 148.976 268.53 144.663C263.078 140.269 258.765 135.182 255.591 129.404C252.498 123.626 250.952 116.912 250.952 109.263C250.952 101.857 252.58 95.1432 255.835 89.1211C259.09 83.0176 263.647 77.8092 269.507 73.4961C275.366 69.1016 282.284 65.7243 290.259 63.3643C298.315 61.0042 307.145 59.8242 316.748 59.8242C329.85 59.8242 341.284 62.1842 351.05 66.9043C360.815 71.6243 368.384 78.0941 373.755 86.3135C379.207 94.5329 381.934 103.932 381.934 114.512H345.557C345.557 109.303 344.458 104.746 342.261 100.84C340.145 96.8522 336.89 93.7191 332.495 91.4404C328.182 89.1618 322.729 88.0225 316.138 88.0225C309.79 88.0225 304.5 88.999 300.269 90.9521C296.037 92.8239 292.863 95.3874 290.747 98.6426C288.631 101.816 287.573 105.397 287.573 109.385C287.573 112.396 288.306 115.122 289.771 117.563C291.317 120.005 293.595 122.284 296.606 124.399C299.618 126.515 303.32 128.509 307.715 130.381C312.109 132.253 317.196 134.084 322.974 135.874C332.658 138.804 341.162 142.1 348.486 145.762C355.892 149.424 362.077 153.534 367.041 158.091C372.005 162.648 375.749 167.816 378.271 173.594C380.794 179.372 382.056 185.923 382.056 193.247C382.056 200.978 380.55 207.896 377.539 213.999C374.528 220.103 370.174 225.27 364.478 229.502C358.781 233.734 351.986 236.948 344.092 239.146C336.198 241.343 327.368 242.441 317.603 242.441C308.813 242.441 300.146 241.302 291.602 239.023C283.057 236.663 275.285 233.123 268.286 228.403C261.369 223.683 255.835 217.661 251.685 210.337C247.534 203.013 245.459 194.346 245.459 184.336H282.202C282.202 189.87 283.057 194.549 284.766 198.374C286.475 202.199 288.875 205.291 291.968 207.651C295.142 210.011 298.885 211.72 303.198 212.778C307.593 213.836 312.394 214.365 317.603 214.365C323.95 214.365 329.159 213.47 333.228 211.68C337.378 209.889 340.43 207.407 342.383 204.233C344.417 201.06 345.435 197.479 345.435 193.491ZM469.458 107.92V132.822H392.554V107.92H469.458ZM411.597 75.3271H446.753V200.205C446.753 204.03 447.241 206.96 448.218 208.994C449.276 211.029 450.822 212.453 452.856 213.267C454.891 213.999 457.454 214.365 460.547 214.365C462.744 214.365 464.697 214.284 466.406 214.121C468.197 213.877 469.702 213.633 470.923 213.389L471.045 239.268C468.034 240.244 464.779 241.017 461.279 241.587C457.78 242.157 453.914 242.441 449.683 242.441C441.951 242.441 435.197 241.18 429.419 238.657C423.722 236.053 419.328 231.903 416.235 226.206C413.143 220.509 411.597 213.022 411.597 203.745V75.3271ZM560.767 210.215V151.377C560.767 147.145 560.075 143.524 558.691 140.513C557.308 137.42 555.151 135.02 552.222 133.311C549.373 131.602 545.671 130.747 541.113 130.747C537.207 130.747 533.83 131.439 530.981 132.822C528.133 134.124 525.936 136.037 524.39 138.56C522.843 141.001 522.07 143.89 522.07 147.227H486.914C486.914 141.611 488.216 136.281 490.82 131.235C493.424 126.19 497.209 121.755 502.173 117.93C507.137 114.023 513.037 110.972 519.873 108.774C526.79 106.577 534.521 105.479 543.066 105.479C553.32 105.479 562.435 107.188 570.41 110.605C578.385 114.023 584.652 119.15 589.209 125.986C593.848 132.822 596.167 141.367 596.167 151.621V208.14C596.167 215.382 596.615 221.323 597.51 225.962C598.405 230.519 599.707 234.507 601.416 237.925V240H565.894C564.185 236.419 562.882 231.943 561.987 226.572C561.174 221.12 560.767 215.667 560.767 210.215ZM565.405 159.556L565.649 179.453H545.996C541.357 179.453 537.329 179.982 533.911 181.04C530.493 182.098 527.686 183.604 525.488 185.557C523.291 187.428 521.663 189.626 520.605 192.148C519.629 194.671 519.141 197.438 519.141 200.449C519.141 203.46 519.832 206.187 521.216 208.628C522.599 210.988 524.593 212.86 527.197 214.243C529.801 215.545 532.853 216.196 536.353 216.196C541.642 216.196 546.24 215.138 550.146 213.022C554.053 210.907 557.064 208.302 559.18 205.21C561.377 202.118 562.516 199.188 562.598 196.421L571.875 211.313C570.573 214.65 568.783 218.109 566.504 221.689C564.307 225.27 561.499 228.647 558.081 231.821C554.663 234.914 550.553 237.477 545.752 239.512C540.951 241.465 535.254 242.441 528.662 242.441C520.28 242.441 512.671 240.773 505.835 237.437C499.08 234.019 493.709 229.339 489.722 223.398C485.815 217.376 483.862 210.54 483.862 202.891C483.862 195.973 485.164 189.829 487.769 184.458C490.373 179.087 494.198 174.57 499.243 170.908C504.37 167.165 510.758 164.357 518.408 162.485C526.058 160.532 534.928 159.556 545.02 159.556H565.405ZM694.678 203.501C694.678 200.978 693.945 198.7 692.48 196.665C691.016 194.631 688.289 192.759 684.302 191.05C680.396 189.259 674.74 187.632 667.334 186.167C660.661 184.702 654.435 182.871 648.657 180.674C642.961 178.395 637.996 175.669 633.765 172.495C629.614 169.321 626.359 165.578 623.999 161.265C621.639 156.87 620.459 151.865 620.459 146.25C620.459 140.716 621.639 135.508 623.999 130.625C626.44 125.742 629.899 121.429 634.375 117.686C638.932 113.861 644.466 110.89 650.977 108.774C657.568 106.577 664.974 105.479 673.193 105.479C684.668 105.479 694.515 107.31 702.734 110.972C711.035 114.634 717.383 119.679 721.777 126.108C726.253 132.456 728.491 139.699 728.491 147.837H693.335C693.335 144.419 692.603 141.367 691.138 138.682C689.754 135.915 687.557 133.758 684.546 132.212C681.616 130.584 677.791 129.771 673.071 129.771C669.165 129.771 665.788 130.462 662.939 131.846C660.091 133.148 657.894 134.938 656.348 137.217C654.883 139.414 654.15 141.855 654.15 144.541C654.15 146.576 654.557 148.407 655.371 150.034C656.266 151.58 657.69 153.005 659.644 154.307C661.597 155.609 664.119 156.829 667.212 157.969C670.386 159.027 674.292 160.003 678.931 160.898C688.452 162.852 696.956 165.415 704.443 168.589C711.93 171.681 717.871 175.913 722.266 181.284C726.66 186.574 728.857 193.532 728.857 202.158C728.857 208.018 727.555 213.389 724.951 218.271C722.347 223.154 718.604 227.427 713.721 231.089C708.838 234.67 702.979 237.477 696.143 239.512C689.388 241.465 681.779 242.441 673.315 242.441C661.027 242.441 650.61 240.244 642.065 235.85C633.602 231.455 627.173 225.881 622.778 219.126C618.465 212.29 616.309 205.291 616.309 198.13H649.634C649.797 202.931 651.017 206.797 653.296 209.727C655.656 212.656 658.626 214.772 662.207 216.074C665.869 217.376 669.816 218.027 674.048 218.027C678.605 218.027 682.389 217.417 685.4 216.196C688.411 214.894 690.69 213.185 692.236 211.069C693.864 208.872 694.678 206.349 694.678 203.501ZM785.986 52.5V240H750.83V52.5H785.986ZM780.981 169.321H771.338C771.419 160.125 772.64 151.662 775 143.931C777.36 136.118 780.737 129.364 785.132 123.667C789.526 117.889 794.775 113.413 800.879 110.239C807.064 107.065 813.9 105.479 821.387 105.479C827.897 105.479 833.797 106.414 839.087 108.286C844.458 110.076 849.056 113.006 852.881 117.075C856.787 121.063 859.798 126.312 861.914 132.822C864.03 139.333 865.088 147.227 865.088 156.504V240H829.688V156.26C829.688 150.4 828.833 145.802 827.124 142.466C825.496 139.048 823.096 136.647 819.922 135.264C816.829 133.799 813.005 133.066 808.447 133.066C803.402 133.066 799.089 134.002 795.508 135.874C792.008 137.746 789.201 140.35 787.085 143.687C784.969 146.942 783.423 150.767 782.446 155.161C781.47 159.556 780.981 164.276 780.981 169.321ZM931.006 225.107L966.04 107.92H1003.76L950.659 259.897C949.52 263.234 947.974 266.815 946.021 270.64C944.149 274.465 941.585 278.086 938.33 281.504C935.156 285.003 931.128 287.852 926.245 290.049C921.444 292.246 915.544 293.345 908.545 293.345C905.208 293.345 902.482 293.141 900.366 292.734C898.25 292.327 895.728 291.758 892.798 291.025V265.269C893.693 265.269 894.629 265.269 895.605 265.269C896.582 265.35 897.518 265.391 898.413 265.391C903.052 265.391 906.836 264.862 909.766 263.804C912.695 262.746 915.055 261.118 916.846 258.921C918.636 256.805 920.06 254.038 921.118 250.62L931.006 225.107ZM916.357 107.92L945.044 203.623L950.049 240.854L926.123 243.418L878.638 107.92H916.357Z" fill="#4D4D4D"/>
</svg>
