<svg width="96" height="96" viewBox="0 0 96 96" fill="none" xmlns="http://www.w3.org/2000/svg">
<path d="M0 16.5V79C0 80.9681 1.62818 80 3.5 80C5.37182 80 6.77647 81.9694 6.77647 80V14.5C6.77647 12.5306 5.37182 16 3.5 16C1.62818 16 0 14.5305 0 16.5Z" fill="black"/>
<path d="M89.2235 15.9999V81.5C89.2235 83.4681 90.7399 81.5 92.6118 81.5C94.4836 81.5 96 81.2223 96 79.2529V15.9999C96 14.0305 94.4836 16.9999 92.6118 16.9999C90.7399 16.9999 89.2235 14.0305 89.2235 15.9999Z" fill="black"/>
<path d="M89.2235 15.9999V81.5C89.2235 83.4681 90.7399 81.5 92.6118 81.5C94.4836 81.5 96 81.2223 96 79.2529V15.9999C96 14.0305 94.4836 16.9999 92.6118 16.9999C90.7399 16.9999 89.2235 14.0305 89.2235 15.9999Z" fill="black"/>
<path d="M92.4351 13H3.56489C1.59679 13 4.42306e-07 14.5164 4.42306e-07 16.3882C4.42306e-07 18.2601 1.59548 19.7765 3.56489 19.7765H92.4351C94.4045 19.7765 96 18.2601 96 16.3882C96 14.5164 94.4045 13 92.4351 13Z" fill="black"/>
<path d="M92.4351 76H3.56489C1.59679 76 4.42306e-07 77.5664 4.42306e-07 79.5C4.42306e-07 81.4336 1.59548 83 3.56489 83H92.4351C94.4045 83 96 81.4336 96 79.5C96 77.5664 94.4045 76 92.4351 76Z" fill="black"/>
<path d="M65 48L39.5 63.5885L39.5 32.4115L65 48Z" fill="black"/>
</svg>
