<svg width="1273" height="184" viewBox="0 0 1273 184" fill="none" xmlns="http://www.w3.org/2000/svg">
<path opacity="0.55" d="M234.874 39.0507C334.217 25.465 435.465 43.6163 531.732 70.8542C628 98.0922 721.468 134.461 818.631 158.619C915.794 182.776 1018.81 194.433 1116.27 171.429C1153.33 162.674 1189.77 148.645 1219.05 125.02C1248.34 101.394 1269.88 67.2639 1271.97 30.4738C1274.04 -6.11684 1256.85 -41.9318 1231.72 -69.4135C1206.59 -96.8731 1174.05 -116.997 1140.87 -134.749C930.32 -247.336 681.332 -276.302 441.041 -263.758C352.048 -259.104 262.137 -248.798 179.294 -217.061C96.4509 -185.324 20.5612 -130.051 -19.9653 -53.3899C-40.3892 -14.7824 -50.4176 29.1662 -48.5129 72.5164C-47.3655 98.8014 -36.7864 190.998 1.8125 161.788C37.9789 134.417 61.7762 101.527 104.184 79.675C144.734 58.7534 189.391 45.2563 234.874 39.0507Z" fill="url(#paint0_linear_5_29)"/>
<defs>
<linearGradient id="paint0_linear_5_29" x1="-48.7483" y1="-41.3057" x2="1272.12" y2="-41.3057" gradientUnits="userSpaceOnUse">
<stop stop-color="#4D4D4D"/>
<stop offset="0.2294" stop-color="#4D4D4D"/>
<stop offset="0.711" stop-color="#1D262D"/>
<stop offset="1"/>
</linearGradient>
</defs>
</svg>
