<svg width="1093" height="551" viewBox="0 0 1093 551" fill="none" xmlns="http://www.w3.org/2000/svg">
<path d="M680.89 -71.261C644.242 -10.4909 622.12 57.3712 589.396 120.202C556.672 183.034 509.903 243.383 442.665 270.421C323.197 318.492 173.138 249.655 62.0459 313.794C9.21911 344.29 -22.5641 398.721 -57.9044 447.39C-93.2446 496.06 -140.541 544.219 -201.836 549.738C-253.194 554.37 -303.703 526.29 -334.614 486.397C-365.548 446.526 -379.294 396.461 -384.893 346.949C-405.294 166.966 -323.415 -15.2781 -192.243 -144.642C-61.0712 -274.005 114.804 -354.567 296.301 -399.956C477.776 -445.345 666.18 -457.756 853.392 -467.242C894.859 -469.347 936.969 -471.253 977.45 -462.3C1017.93 -453.346 1057.26 -431.981 1078.1 -397.274C1092.86 -372.718 1103.11 -324.758 1072.85 -307.161C1048.66 -293.11 1004.74 -296.456 977.289 -289.165C898.715 -268.332 825.647 -228.483 766.326 -174.584C732.983 -144.287 703.953 -109.492 680.89 -71.261Z" fill="url(#paint0_linear_5_28)"/>
<defs>
<linearGradient id="paint0_linear_5_28" x1="-388.009" y1="40.6167" x2="1092.4" y2="40.6167" gradientUnits="userSpaceOnUse">
<stop stop-color="#4D4D4D"/>
<stop offset="0.2294" stop-color="#4D4D4D"/>
<stop offset="0.711"/>
<stop offset="1"/>
</linearGradient>
</defs>
</svg>
