<svg width="668" height="1117" viewBox="0 0 668 1117" fill="none" xmlns="http://www.w3.org/2000/svg">
<path d="M232.488 85.7253C111.62 176.083 20.0564 302.455 -26.4596 443.077C-44.2903 496.976 -55.6726 553.669 -50.8076 610.05C-45.9196 666.432 -23.591 722.659 18.3813 762.131C67.0773 807.897 136.404 826.78 203.803 835.113C271.179 843.446 339.909 842.98 406.091 857.829C472.274 872.678 538.181 906.166 570.492 963.878C596.446 1010.22 597.204 1067.58 578.547 1117.09C559.867 1166.6 523.173 1208.55 479.571 1240.22C377.016 1314.69 236.756 1332.6 113.066 1299.64C-10.6253 1266.69 -117.633 1186.68 -194.44 1087.43C-271.248 988.19 -319.508 870.484 -349.501 750.008C-386.081 603.18 -396.408 448.196 -360.677 301.169C-324.947 154.142 -240.475 15.5138 -113.135 -72.1617C44.7717 -180.914 248.621 -202.013 442.464 -208.263C497.333 -210.036 555.14 -210.235 603.262 -184.726C633.691 -168.592 664.534 -134.306 666.897 -99.311C669.399 -62.2551 633.898 -65.8232 604.685 -62.3658C519.226 -52.2818 435.442 -27.4373 358.405 9.57433C313.977 30.917 271.706 56.4041 232.488 85.7253Z" fill="url(#paint0_linear_5_18)"/>
<defs>
<linearGradient id="paint0_linear_5_18" x1="-286.398" y1="553.274" x2="763.4" y2="553.274" gradientUnits="userSpaceOnUse">
<stop stop-color="#4D4D4D"/>
<stop offset="0.2294" stop-color="#4D4D4D"/>
<stop offset="0.711"/>
<stop offset="1"/>
</linearGradient>
</defs>
</svg>
