<svg width="490" height="937" viewBox="0 0 490 937" fill="none" xmlns="http://www.w3.org/2000/svg">
<path opacity="0.55" d="M-33.5 138.965C-9.51912 183.357 -102.326 209.874 -75.6375 252.825C-22.6042 338.173 -17.5556 449.519 -62.6489 539.012C-89.3606 592.003 -36.2125 633.341 -62.6489 686.465C-89.0852 739.589 -1.12471 812.455 40.1591 855.85C76.9221 894.479 138.836 898.912 192.237 889.249C245.637 879.586 297.041 858.687 351.291 856.271C405.563 853.855 467.019 876.926 484.413 926.637C500.133 971.561 474.133 1020.87 439.389 1054.38C373.39 1118.03 274.827 1145.54 182.186 1135.03C89.5437 1124.53 3.39608 1078.45 -62.6489 1014.87C-128.717 951.282 -175.692 870.965 -208.163 786.503C-269.825 626.111 -280.427 447.834 -238.203 281.703C-221.45 215.813 -196.024 150.81 -152.904 97.2649C-119.606 55.9093 -67.6745 11.8942 -12.7135 1.23393C27.2622 -6.52302 -46.7052 23.7813 -49 50.4651C-51.5702 80.0302 -47.5673 112.902 -33.5 138.965Z" fill="url(#paint0_linear_5_35)"/>
<defs>
<linearGradient id="paint0_linear_5_35" x1="-263.63" y1="568.445" x2="489.1" y2="568.445" gradientUnits="userSpaceOnUse">
<stop stop-color="#4D4D4D"/>
<stop offset="0.2294" stop-color="#4D4D4D"/>
<stop offset="0.711"/>
<stop offset="1"/>
</linearGradient>
</defs>
</svg>
