<svg width="1408" height="433" viewBox="0 0 1408 433" fill="none" xmlns="http://www.w3.org/2000/svg">
<path d="M1149.74 224.285C1029.6 273.796 891.068 284.301 763.774 253.517C646.276 225.127 538.597 163.027 417.93 150.394C290.372 137.052 157.148 184.547 72.374 273.53C23.7086 324.615 -9.92753 393.009 2.65299 460.029C14.8494 524.944 69.0128 578.267 132.636 608.076C196.282 637.907 268.692 647.393 339.902 652.003C619.963 670.132 903.384 618.581 1160.66 514.838C1250.89 478.447 1339.77 434.587 1407.81 368.919C1475.85 303.228 1520.96 212.45 1509.07 122.226C1504.85 90.1783 1489.6 26.8151 1458.66 6.64701C1417.31 -20.2807 1391.05 41.5533 1367.78 68.3258C1309.73 135.146 1234.54 189.356 1149.74 224.285Z" fill="url(#paint0_linear_5_9)"/>
<defs>
<linearGradient id="paint0_linear_5_9" x1="0.0134085" y1="327.79" x2="1510.96" y2="327.79" gradientUnits="userSpaceOnUse">
<stop stop-color="#4D4D4D"/>
<stop offset="0.2294" stop-color="#4D4D4D"/>
<stop offset="0.711"/>
<stop offset="1"/>
</linearGradient>
</defs>
</svg>
