<svg width="989" height="1117" viewBox="0 0 989 1117" fill="none" xmlns="http://www.w3.org/2000/svg">
<path d="M233.168 1209.45C324.341 1206.32 416.983 1129.21 504.668 1153.5C592.353 1177.79 777.823 1229.33 866.702 1209.45C1018.87 1175.38 1122.69 1023.94 1129.67 873.237C1136.64 722.531 968.087 493.812 866.702 379.076C827.942 335.216 784.845 294.503 752.626 245.967C720.407 197.43 699.593 138.5 711.686 82.0291C728.966 1.33471 813.507 -55.845 898.737 -59.7457C983.967 -63.6463 1066.4 -22.2685 1126.66 36.0858C1186.92 94.4402 1227.91 168.53 1263.87 243.263C1311.78 342.84 1352.65 446.539 1371.08 554.892C1389.51 663.246 1384.62 776.963 1343.38 879.288C1285.92 1021.84 1162.57 1131.7 1026.17 1209.45C766.05 1357.71 445.121 1403.1 151.888 1333.07C111.636 1323.45 70.4217 1310.97 39.7858 1283.96C-17.6538 1233.27 -8.68077 1256.43 39.786 1209.45C87.3118 1163.37 166.824 1211.73 233.168 1209.45Z" fill="url(#paint0_linear_5_36)"/>
<defs>
<linearGradient id="paint0_linear_5_36" x1="1166.31" y1="162.744" x2="687.805" y2="1256.81" gradientUnits="userSpaceOnUse">
<stop stop-color="#4D4D4D"/>
<stop offset="0.2294" stop-color="#4D4D4D"/>
<stop offset="0.711"/>
<stop offset="1"/>
</linearGradient>
</defs>
</svg>
