<svg width="839" height="1117" viewBox="0 0 839 1117" fill="none" xmlns="http://www.w3.org/2000/svg">
<path d="M230.068 1034.44C321.241 1031.32 409.867 1059.98 497.552 1084.27C585.237 1108.56 678.086 1128.83 766.964 1108.95C919.134 1074.89 1022.95 923.453 1029.93 772.747C1036.9 622.04 962.919 476.609 861.534 361.873C822.774 318.013 779.678 277.3 747.458 228.763C715.239 180.227 694.425 121.296 706.519 64.8259C723.799 -15.8685 808.34 -73.0482 893.569 -76.9489C978.799 -80.8495 1061.23 -39.4717 1121.49 18.8826C1181.75 77.237 1222.74 151.327 1258.7 226.06C1306.61 325.637 1347.48 429.336 1365.91 537.689C1384.34 646.043 1379.45 759.759 1338.21 862.085C1280.75 1004.64 1157.41 1114.5 1021 1192.24C760.883 1340.51 439.952 1385.9 146.72 1315.87C106.469 1306.25 65.2539 1293.77 34.618 1266.75C-22.8213 1216.07 -1.75483 1152.39 46.7118 1105.41C94.2375 1059.33 163.725 1036.73 230.068 1034.44Z" fill="url(#paint0_linear_5_36)"/>
<defs>
<linearGradient id="paint0_linear_5_36" x1="1079.23" y1="145.541" x2="600.725" y2="1239.61" gradientUnits="userSpaceOnUse">
<stop stop-color="#4D4D4D"/>
<stop offset="0.2294" stop-color="#4D4D4D"/>
<stop offset="0.711"/>
<stop offset="1"/>
</linearGradient>
</defs>
</svg>
