<svg width="96" height="96" viewBox="0 0 96 96" fill="none" xmlns="http://www.w3.org/2000/svg">
<path d="M0 3.56489V92.4351C0 94.4032 1.51642 96 3.38824 96C5.26006 96 6.77647 94.4045 6.77647 92.4351V3.56489C6.77647 1.59547 5.26006 0 3.38824 0C1.51642 0 0 1.59547 0 3.56489Z" fill="black"/>
<path d="M89.2235 3.56501V92.4352C89.2235 94.4033 90.7399 96.0001 92.6118 96.0001C94.4836 96.0001 96 94.4046 96 92.4352V3.56501C96 1.5956 94.4836 0.00012207 92.6118 0.00012207C90.7399 0.00012207 89.2235 1.5956 89.2235 3.56501Z" fill="black"/>
<path d="M89.2235 3.56501V92.4352C89.2235 94.4033 90.7399 96.0001 92.6118 96.0001C94.4836 96.0001 96 94.4046 96 92.4352V3.56501C96 1.5956 94.4836 0.00012207 92.6118 0.00012207C90.7399 0.00012207 89.2235 1.5956 89.2235 3.56501Z" fill="black"/>
<path d="M92.4351 0H3.56489C1.59679 0 4.42306e-07 1.51642 4.42306e-07 3.38824C4.42306e-07 5.26006 1.59548 6.77647 3.56489 6.77647H92.4351C94.4045 6.77647 96 5.26006 96 3.38824C96 1.51642 94.4045 0 92.4351 0Z" fill="black"/>
<path d="M92.4351 89H3.56489C1.59679 89 4.42306e-07 90.5664 4.42306e-07 92.5C4.42306e-07 94.4336 1.59548 96 3.56489 96H92.4351C94.4045 96 96 94.4336 96 92.5C96 90.5664 94.4045 89 92.4351 89Z" fill="black"/>
<circle cx="71" cy="28" r="12" fill="black"/>
<circle cx="71" cy="28" r="8" fill="#D9D9D9"/>
<path d="M31.0889 44.9707L2.97077 73.0888C1.33072 74.7289 0.893806 76.9532 1.99699 78.0564C3.10018 79.1596 5.3227 78.723 6.96384 77.0819L35.082 48.9638C36.722 47.3237 37.1589 45.0994 36.0565 43.9969C34.954 42.8945 32.73 43.3295 31.0889 44.9707Z" fill="black"/>
<path d="M65.2017 48.4526L51.4525 62.2018C50.6505 63.0038 50.8936 64.5481 51.9968 65.6513C53.1 66.7545 54.6431 66.9974 55.4456 66.1949L69.1948 52.4457C69.9967 51.6437 69.7536 50.0994 68.6512 48.9969C67.5487 47.8945 66.0042 47.6501 65.2017 48.4526Z" fill="black"/>
<path d="M33.9707 48.9637L62.0888 77.0818C63.7289 78.7219 65.9532 79.1588 67.0564 78.0556C68.1596 76.9524 67.723 74.7299 66.0819 73.0888L37.9638 44.9706C36.3237 43.3306 34.0994 42.8937 32.9969 43.9961C31.8945 45.0986 32.3295 47.3226 33.9707 48.9637Z" fill="black"/>
<path d="M65.4443 53.4373L88.5796 76.5727C89.929 77.9221 91.8894 78.1514 92.9577 77.0831C94.0261 76.0147 93.7969 74.056 92.4466 72.7057L69.3113 49.5703C67.9618 48.2209 66.0015 47.9915 64.9339 49.0592C63.8662 50.1268 64.0939 52.087 65.4443 53.4373Z" fill="black"/>
</svg>
