<svg xmlns="http://www.w3.org/2000/svg" data-name="Layer 1" viewBox="0 0 32 40" x="0px" y="0px"><title>Social Media, Basic, Social, facebook , digital, ,</title><path d="M3.922,11.533l6.2,15.4a2.953,2.953,0,0,0,1.782,1.7h.01A2.963,2.963,0,0,0,13.3,29h12a3,3,0,0,0,3-3V13c0-.015-.007-.029-.007-.044a.993.993,0,0,0-.035-.209.928.928,0,0,0-.022-.091,1.012,1.012,0,0,0-.146-.27l-7-9a.991.991,0,0,0-.311-.253,1.008,1.008,0,0,0-.094-.044.988.988,0,0,0-.351-.081c-.012,0-.022-.008-.034-.008h-7a2.994,2.994,0,0,0-2.971,2.713L5.569,7.625A3.011,3.011,0,0,0,3.922,11.533ZM21.3,6.915,25.255,12H22.3a1,1,0,0,1-1-1ZM12.3,6a1,1,0,0,1,1-1h6v6a3,3,0,0,0,3,3h4V26a1,1,0,0,1-1,1h-12a1,1,0,0,1-1-1ZM6.323,9.478,10.3,7.88V22.027L5.776,10.783A1.006,1.006,0,0,1,6.323,9.478Z"/><text x="0" y="47" fill="#000000" font-size="5px" font-weight="bold" font-family="'Helvetica Neue', Helvetica, Arial-Unicode, Arial, Sans-serif">Created by Anggara Putra</text><text x="0" y="52" fill="#000000" font-size="5px" font-weight="bold" font-family="'Helvetica Neue', Helvetica, Arial-Unicode, Arial, Sans-serif">from the Noun Project</text></svg>